<?xml version="1.0" encoding="utf-8"?>
<!-- Generator: Adobe Illustrator 24.1.2, SVG Export Plug-In . SVG Version: 6.00 Build 0)  -->
<svg version="1.1" id="Слой_1" xmlns="http://www.w3.org/2000/svg" xmlns:xlink="http://www.w3.org/1999/xlink" x="0px" y="0px"
	 viewBox="0 0 9 7.8" style="enable-background:new 0 0 9 7.8;" xml:space="preserve">
<style type="text/css">
	.st0{fill:#05AD55;}
</style>
<path class="st0" d="M0.2,3.9C0.8,3.8,1.1,4,1.4,4.3c0.2,0.2,0.2,0.2,0.1,0.4C1.4,4.8,1.3,5,1.2,5.1c-0.1,0-0.7,0.1-1,0 M2.4,2.9
	l0.2,0.2H2.5C2.3,3.1,2,3.2,1.8,3.3C1.7,3.4,1.5,3.4,1.3,3.6C1.1,3.8,1.1,3.8,0.8,3.7C0.5,3.6,0.3,3.5,0.2,3.3c0-0.1,0-0.4,0-0.7
	s0-0.4,0.1-0.4c0,0,0.1,0,0.3,0c0.1,0,0.3,0,0.3,0s0.1,0,0.2,0c0.4,0.1,0.8,0.2,1,0.4C2.2,2.7,2.3,2.8,2.4,2.9z M2.1,2
	C2,2.2,1.9,2.2,1.6,2.1C1.3,2.1,0.9,2,0.7,2C0.4,2,0.3,2,0.3,1.9s0-0.1,0-0.5c0-0.5,0-0.6,0.1-0.6s0.6,0,0.8,0.1
	C1.3,1,1.4,1,1.5,1.1c0.2,0.2,0.6,0.5,0.6,0.6C2.1,1.7,2.2,1.9,2.1,2z M2.6,1.9C2.7,1.8,3,1.6,3.2,1.6c0.1,0,0.4,0,0.5,0
	C4,1.7,4.2,1.9,4.3,2.1c0.1,0.1,0.1,0.1,0.1,0.3c0,0.1-0.1,0.2-0.1,0.3C4.2,2.9,3.9,3.2,3.7,3.2C3.4,3.3,3.2,3.3,2.9,3
	C2.8,2.9,2.4,2.6,2.4,2.5C2.3,2.3,2.3,2.1,2.6,1.9z M4.4,4.2c0.1,0.2,0.3,0.5,0.4,0.6h0.1H4.8C4.6,4.7,4.4,4.6,4.3,4.5
	C4.1,4.4,4.1,4.2,4,3.9V3.7l0.1-0.1c0-0.1,0.1-0.2,0.2-0.2c-0.1-0.1-0.1-0.1,0-0.1c0,0,0,0,0,0.1C4.3,3.7,4.3,4,4.4,4.2z M4.2,5.1
	c0,0.1-0.1,0.2-0.2,0.3S3.8,5.5,3.8,5.5s-0.1,0-0.1-0.1S3.6,5.1,3.5,5L3.3,4.7l0.1-0.2c0,0,0.1-0.1,0.1-0.2S3.6,4.1,3.6,4V3.9
	l0.1,0.2C3.8,4.5,4,4.7,4.2,5.1L4.2,5.1z M3.1,4.5c0,0-0.1,0-0.2-0.1c-0.1,0-0.2-0.1-0.3-0.1s-0.4,0-0.6,0c-0.1,0-0.1,0-0.2,0
	S1.6,4.2,1.6,4.2C1.4,4,1.4,3.9,1.6,3.7C1.7,3.5,2,3.4,2.3,3.3c0,0,0.2,0,0.3,0c0.3,0,0.5,0,0.7,0.2c0.1,0.1,0.1,0.2,0.1,0.4
	C3.3,4.2,3.2,4.4,3.1,4.5z M2.2,0.3C2.2,0.3,2.2,0.4,2.2,0.3C1.9,0.5,1.7,0.6,1.6,0.7s-0.2,0.1-0.5,0c-0.1,0-0.3-0.1-0.4,0
	C0.2,0.6,0.2,0.6,0.2,0.5c0-0.2,0.2-0.3,0.5-0.3C1.1,0.1,1.7,0.2,2.2,0.3C2.2,0.3,2.2,0.4,2.2,0.3z M3.2,0.7
	c0.1,0.1,0.3,0.2,0.3,0.2c0,0.1-0.1,0.3-0.3,0.4C3.1,1.4,3,1.5,2.8,1.5c-0.3,0.1-0.4,0.1-0.5,0C2.1,1.4,1.7,1.1,1.7,1s0-0.1,0.1-0.2
	S2,0.6,2.2,0.6c0.1,0,0.4,0,0.5,0S3,0.7,3.2,0.7z M5,0.1H4.8C4.6,0.2,4.3,0.4,3.9,0.7C3.8,0.8,3.8,0.8,3.7,0.8
	c0-0.1-0.1-0.1-0.2-0.1C3.3,0.6,2.9,0.4,2.9,0.3c-0.1,0-0.1,0-0.1,0s0.4-0.1,0.8-0.2c0.2,0,0.9,0,1.2,0C4.8,0.1,5,0.1,5,0.1z
	 M6.2,1.4V1.3C6.1,1.2,6,1.2,5.7,1.3C5.5,1.4,5.3,1.5,5,1.9S4.6,2.3,4.5,2C4.4,1.9,4.4,1.8,4.3,1.8C4.2,1.7,4,1.6,3.6,1.5
	C3.5,1.4,3.4,1.4,3.4,1.4s0.1-0.1,0.2-0.2c0.5-0.4,0.9-0.7,1.3-0.8s0.7,0,1,0.3C6.1,0.9,6.2,1,6.2,1.3V1.4z M5.2,4.1
	c0.1-0.5,0-0.8-0.1-1.1C5,2.9,5,2.8,5,2.8c0-0.1,0.1-0.3,0.2-0.4c0.1-0.1,0.1-0.1,0.1-0.1s0.2,0.3,0.2,0.5c0.1,0.4,0.1,0.9,0,1.2
	c0,0.1-0.2,0.3-0.2,0.3C5.2,4.3,5.2,4.2,5.2,4.1z M6.4,4.2C6.1,4.8,5.6,5.1,5.1,5C4.9,5,4.7,5,4.9,5c0.2,0,0.5-0.1,0.8-0.4
	c0.2-0.3,0.5-0.7,0.5-0.9s0-0.5,0-0.7C6.1,2.7,6,2.4,5.8,2.1L5.7,1.9h0.1c0-0.1,0.1-0.1,0.1-0.1c0.1,0,0.1,0,0.2,0
	c0.2,0.1,0.5,0.5,0.5,1C6.7,3.3,6.7,3.8,6.4,4.2z M7.7,2.7c-0.3,0-0.6-0.1-0.9-0.3c0-0.1-0.1-0.3-0.1-0.4s0-0.1,0.1-0.1
	s0.3,0,0.4,0.2C7.3,2.2,7.8,2.5,7.7,2.7C7.9,2.6,7.8,2.6,7.7,2.7z M6.9,2.8c0.2,0.1,0.5,0.3,0.6,0.5c0.2,0.4,0.2,0.8,0.1,1
	c0,0.1,0,0.1-0.1,0.1c0,0-0.1,0-0.2-0.1C7.1,4.2,6.9,4,6.9,3.9s0-0.2,0-0.4s0-0.4,0-0.5C6.9,2.8,6.9,2.8,6.9,2.8z M8.6,4.1L8.6,4.1
	H8.4C8.2,4,8.1,3.9,8,3.6C7.9,3.5,7.8,3.3,7.7,3.2L7.6,3V2.9c0-0.1,0-0.1,0.1-0.1s0.1,0,0.1,0S7.9,2.9,8,2.9C8.2,3,8.4,3.4,8.5,3.7
	C8.5,3.8,8.6,4.1,8.6,4.1z M8.9,5.3c0,0.3-0.1,0.6-0.3,0.8C8.5,6.2,8.3,6.3,8.2,6.4H8.1V6.1c0-0.5,0-0.9-0.2-1.1c0-0.2,0-0.3,0-0.5
	C7.9,4.4,8,4.3,8,4.3c0-0.1,0-0.1,0.1-0.1s0.3,0.1,0.4,0.2C8.7,4.6,8.8,4.8,8.9,5.3z M7,7V6.8c0-0.7-0.2-1.3-0.6-1.7L6.3,5l0.1-0.1
	c0.1-0.2,0.2-0.4,0.3-0.5c0-0.1,0.1-0.2,0.1-0.2s0.2,0,0.3,0.1C7.5,4.5,7.7,4.8,7.8,5c0.1,0.3,0.1,0.4,0.1,0.8c0,0.6-0.1,0.8-0.5,1
	C7.3,6.9,7.1,7,7,7L7,7z M5.7,7.6L5.7,7.6c0-0.3,0-0.8,0-1.2C5.6,6.1,5.5,5.8,5.3,5.5c-0.1,0-0.1-0.1-0.1-0.1s0.1-0.1,0.2-0.1
	c0.2,0,0.3-0.1,0.4-0.1c0.1-0.1,0.2-0.1,0.3,0c0.3,0.2,0.5,0.5,0.6,0.9c0,0.1,0,0.2,0,0.4c0,0.3,0,0.3,0,0.4
	C6.6,7.1,6.5,7.3,6.2,7.4C6,7.5,5.8,7.6,5.7,7.6L5.7,7.6z M4.5,7.7H4.3H4.5c0-0.2,0-0.4,0-0.7c0-0.4-0.1-0.7-0.3-1.1
	c-0.1-0.3-0.1-0.3,0-0.5c0.1-0.1,0.1-0.2,0.3-0.1c0.7,0.3,1.1,0.9,1,1.8c0,0.4-0.1,0.5-0.4,0.6C4.9,7.8,4.7,7.8,4.5,7.7L4.5,7.7z
	 M1.9,6.9c0-0.4-0.1-0.7-0.4-1.2c0-0.1-0.1-0.3-0.1-0.4L1.3,5.2l0.1-0.1c0-0.1,0.1-0.2,0.2-0.3c0.2-0.2,0.3-0.3,0.5-0.3
	s0.5,0,0.7,0.1C3,4.7,3.3,5,3.4,5.4c0.1,0,0.1,0.2,0.1,0.2v0.1C3.4,5.9,3.1,6,2.9,5.9c-0.1,0-0.2,0-0.2,0c-0.1,0-0.1,0,0-0.1
	s0.2-0.4,0.2-0.7c0-0.2-0.1-0.3-0.4-0.2C2.3,5,2.2,5.2,2.1,5.4c0,0.2,0,0.4,0,0.6c0,0.1,0.1,0.3,0.1,0.3c0.1,0,0.1,0,0.2-0.1
	s0.1-0.1,0.2-0.1c0.1,0,0.2,0,0.3,0c0.3,0,0.5-0.1,0.7-0.3c0.1-0.1,0.1-0.1,0.2-0.1c0.1,0,0.1,0,0.2,0.1c0.2,0.3,0.4,1.1,0.3,1.6
	C4.2,7.6,4.2,7.7,4,7.8c-0.1,0-0.1,0-0.4,0c-0.2,0-0.4,0-0.5,0C2.7,7.7,2.3,7.5,2,7.3C1.9,7.2,1.9,7.1,1.9,6.9z M0.2,5.2
	c0.3,0,0.4,0,0.8,0.1c0.2,0,0.2,0.1,0.4,0.5c0.1,0.3,0.2,0.8,0.2,1.1c0,0.2,0,0.2,0,0.2C1.5,7.1,0.8,7.2,0.2,7"/>
</svg>
